<mxfile host="app.diagrams.net" modified="2024-06-26T18:14:35.906Z" agent="Mozilla/5.0 (Windows NT 10.0; Win64; x64) AppleWebKit/537.36 (KHTML, like Gecko) Chrome/126.0.0.0 Safari/537.36" etag="1RkM36hG4Us7fHUhiaLn" version="24.6.3" type="device">
  <diagram name="Página-1" id="KINBo87TWpfOUl5rChwO">
    <mxGraphModel dx="2074" dy="1178" grid="1" gridSize="10" guides="1" tooltips="1" connect="1" arrows="1" fold="1" page="1" pageScale="1" pageWidth="827" pageHeight="1169" math="0" shadow="0">
      <root>
        <mxCell id="0" />
        <mxCell id="1" parent="0" />
        <mxCell id="DuSQIHQjFHEqa3u9DtBY-8" style="edgeStyle=orthogonalEdgeStyle;rounded=0;orthogonalLoop=1;jettySize=auto;html=1;entryX=0.5;entryY=0;entryDx=0;entryDy=0;" edge="1" parent="1" source="DuSQIHQjFHEqa3u9DtBY-2" target="DuSQIHQjFHEqa3u9DtBY-3">
          <mxGeometry relative="1" as="geometry" />
        </mxCell>
        <mxCell id="DuSQIHQjFHEqa3u9DtBY-2" value="Inicio" style="rounded=1;whiteSpace=wrap;html=1;" vertex="1" parent="1">
          <mxGeometry x="340" y="30" width="120" height="60" as="geometry" />
        </mxCell>
        <mxCell id="DuSQIHQjFHEqa3u9DtBY-9" style="edgeStyle=orthogonalEdgeStyle;rounded=0;orthogonalLoop=1;jettySize=auto;html=1;" edge="1" parent="1" source="DuSQIHQjFHEqa3u9DtBY-3" target="DuSQIHQjFHEqa3u9DtBY-6">
          <mxGeometry relative="1" as="geometry" />
        </mxCell>
        <mxCell id="DuSQIHQjFHEqa3u9DtBY-3" value="Aprender código da estrada" style="rounded=0;whiteSpace=wrap;html=1;" vertex="1" parent="1">
          <mxGeometry x="340" y="150" width="120" height="60" as="geometry" />
        </mxCell>
        <mxCell id="DuSQIHQjFHEqa3u9DtBY-10" style="edgeStyle=orthogonalEdgeStyle;rounded=0;orthogonalLoop=1;jettySize=auto;html=1;entryX=0.5;entryY=0;entryDx=0;entryDy=0;" edge="1" parent="1" source="DuSQIHQjFHEqa3u9DtBY-6" target="DuSQIHQjFHEqa3u9DtBY-7">
          <mxGeometry relative="1" as="geometry" />
        </mxCell>
        <mxCell id="DuSQIHQjFHEqa3u9DtBY-6" value="Exame de condução" style="rounded=0;whiteSpace=wrap;html=1;" vertex="1" parent="1">
          <mxGeometry x="340" y="270" width="120" height="60" as="geometry" />
        </mxCell>
        <mxCell id="DuSQIHQjFHEqa3u9DtBY-13" style="edgeStyle=orthogonalEdgeStyle;rounded=0;orthogonalLoop=1;jettySize=auto;html=1;" edge="1" parent="1" source="DuSQIHQjFHEqa3u9DtBY-7" target="DuSQIHQjFHEqa3u9DtBY-12">
          <mxGeometry relative="1" as="geometry" />
        </mxCell>
        <mxCell id="DuSQIHQjFHEqa3u9DtBY-17" value="Reprovou" style="edgeLabel;html=1;align=center;verticalAlign=middle;resizable=0;points=[];" vertex="1" connectable="0" parent="DuSQIHQjFHEqa3u9DtBY-13">
          <mxGeometry x="-0.2333" y="-4" relative="1" as="geometry">
            <mxPoint as="offset" />
          </mxGeometry>
        </mxCell>
        <mxCell id="DuSQIHQjFHEqa3u9DtBY-14" style="edgeStyle=orthogonalEdgeStyle;rounded=0;orthogonalLoop=1;jettySize=auto;html=1;" edge="1" parent="1" source="DuSQIHQjFHEqa3u9DtBY-7" target="DuSQIHQjFHEqa3u9DtBY-11">
          <mxGeometry relative="1" as="geometry" />
        </mxCell>
        <mxCell id="DuSQIHQjFHEqa3u9DtBY-16" value="Passou" style="edgeLabel;html=1;align=center;verticalAlign=middle;resizable=0;points=[];" vertex="1" connectable="0" parent="DuSQIHQjFHEqa3u9DtBY-14">
          <mxGeometry x="-0.3889" y="2" relative="1" as="geometry">
            <mxPoint as="offset" />
          </mxGeometry>
        </mxCell>
        <mxCell id="DuSQIHQjFHEqa3u9DtBY-7" value="Resultado" style="rhombus;whiteSpace=wrap;html=1;" vertex="1" parent="1">
          <mxGeometry x="360" y="380" width="80" height="80" as="geometry" />
        </mxCell>
        <mxCell id="DuSQIHQjFHEqa3u9DtBY-20" style="edgeStyle=orthogonalEdgeStyle;rounded=0;orthogonalLoop=1;jettySize=auto;html=1;entryX=0.5;entryY=0;entryDx=0;entryDy=0;" edge="1" parent="1" source="DuSQIHQjFHEqa3u9DtBY-11">
          <mxGeometry relative="1" as="geometry">
            <mxPoint x="400" y="585" as="targetPoint" />
          </mxGeometry>
        </mxCell>
        <mxCell id="DuSQIHQjFHEqa3u9DtBY-11" value="Aprender a condução" style="rounded=0;whiteSpace=wrap;html=1;" vertex="1" parent="1">
          <mxGeometry x="500" y="480" width="120" height="60" as="geometry" />
        </mxCell>
        <mxCell id="DuSQIHQjFHEqa3u9DtBY-15" style="edgeStyle=orthogonalEdgeStyle;rounded=0;orthogonalLoop=1;jettySize=auto;html=1;entryX=0;entryY=0.5;entryDx=0;entryDy=0;" edge="1" parent="1" source="DuSQIHQjFHEqa3u9DtBY-12" target="DuSQIHQjFHEqa3u9DtBY-6">
          <mxGeometry relative="1" as="geometry">
            <Array as="points">
              <mxPoint x="140" y="510" />
              <mxPoint x="140" y="300" />
            </Array>
          </mxGeometry>
        </mxCell>
        <mxCell id="DuSQIHQjFHEqa3u9DtBY-12" value="Estudar melhor" style="rounded=0;whiteSpace=wrap;html=1;" vertex="1" parent="1">
          <mxGeometry x="180" y="480" width="120" height="60" as="geometry" />
        </mxCell>
        <mxCell id="DuSQIHQjFHEqa3u9DtBY-23" style="edgeStyle=orthogonalEdgeStyle;rounded=0;orthogonalLoop=1;jettySize=auto;html=1;" edge="1" parent="1" source="DuSQIHQjFHEqa3u9DtBY-21" target="DuSQIHQjFHEqa3u9DtBY-22">
          <mxGeometry relative="1" as="geometry" />
        </mxCell>
        <mxCell id="DuSQIHQjFHEqa3u9DtBY-21" value="Exame de condução" style="rounded=0;whiteSpace=wrap;html=1;" vertex="1" parent="1">
          <mxGeometry x="340" y="585" width="120" height="60" as="geometry" />
        </mxCell>
        <mxCell id="DuSQIHQjFHEqa3u9DtBY-26" style="edgeStyle=orthogonalEdgeStyle;rounded=0;orthogonalLoop=1;jettySize=auto;html=1;entryX=0.5;entryY=0;entryDx=0;entryDy=0;" edge="1" parent="1" source="DuSQIHQjFHEqa3u9DtBY-22" target="DuSQIHQjFHEqa3u9DtBY-24">
          <mxGeometry relative="1" as="geometry" />
        </mxCell>
        <mxCell id="DuSQIHQjFHEqa3u9DtBY-29" value="Reprovou" style="edgeLabel;html=1;align=center;verticalAlign=middle;resizable=0;points=[];" vertex="1" connectable="0" parent="DuSQIHQjFHEqa3u9DtBY-26">
          <mxGeometry x="-0.3765" y="4" relative="1" as="geometry">
            <mxPoint as="offset" />
          </mxGeometry>
        </mxCell>
        <mxCell id="DuSQIHQjFHEqa3u9DtBY-27" style="edgeStyle=orthogonalEdgeStyle;rounded=0;orthogonalLoop=1;jettySize=auto;html=1;entryX=0.5;entryY=0;entryDx=0;entryDy=0;" edge="1" parent="1" source="DuSQIHQjFHEqa3u9DtBY-22" target="DuSQIHQjFHEqa3u9DtBY-25">
          <mxGeometry relative="1" as="geometry" />
        </mxCell>
        <mxCell id="DuSQIHQjFHEqa3u9DtBY-30" value="Passou" style="edgeLabel;html=1;align=center;verticalAlign=middle;resizable=0;points=[];" vertex="1" connectable="0" parent="DuSQIHQjFHEqa3u9DtBY-27">
          <mxGeometry x="-0.2857" y="-1" relative="1" as="geometry">
            <mxPoint as="offset" />
          </mxGeometry>
        </mxCell>
        <mxCell id="DuSQIHQjFHEqa3u9DtBY-22" value="Resultado" style="rhombus;whiteSpace=wrap;html=1;" vertex="1" parent="1">
          <mxGeometry x="360" y="700" width="80" height="80" as="geometry" />
        </mxCell>
        <mxCell id="DuSQIHQjFHEqa3u9DtBY-28" style="edgeStyle=orthogonalEdgeStyle;rounded=0;orthogonalLoop=1;jettySize=auto;html=1;entryX=1;entryY=0.5;entryDx=0;entryDy=0;" edge="1" parent="1" source="DuSQIHQjFHEqa3u9DtBY-24" target="DuSQIHQjFHEqa3u9DtBY-21">
          <mxGeometry relative="1" as="geometry">
            <Array as="points">
              <mxPoint x="660" y="820" />
              <mxPoint x="660" y="615" />
            </Array>
          </mxGeometry>
        </mxCell>
        <mxCell id="DuSQIHQjFHEqa3u9DtBY-24" value="Praticar mais a condução" style="rounded=0;whiteSpace=wrap;html=1;" vertex="1" parent="1">
          <mxGeometry x="500" y="790" width="120" height="60" as="geometry" />
        </mxCell>
        <mxCell id="DuSQIHQjFHEqa3u9DtBY-32" style="edgeStyle=orthogonalEdgeStyle;rounded=0;orthogonalLoop=1;jettySize=auto;html=1;entryX=0.5;entryY=0;entryDx=0;entryDy=0;" edge="1" parent="1" source="DuSQIHQjFHEqa3u9DtBY-25" target="DuSQIHQjFHEqa3u9DtBY-31">
          <mxGeometry relative="1" as="geometry" />
        </mxCell>
        <mxCell id="DuSQIHQjFHEqa3u9DtBY-25" value="Parabéns tirou a carta de condução" style="rounded=0;whiteSpace=wrap;html=1;" vertex="1" parent="1">
          <mxGeometry x="210" y="790" width="120" height="60" as="geometry" />
        </mxCell>
        <mxCell id="DuSQIHQjFHEqa3u9DtBY-31" value="Fim" style="rounded=1;whiteSpace=wrap;html=1;" vertex="1" parent="1">
          <mxGeometry x="210" y="920" width="120" height="60" as="geometry" />
        </mxCell>
      </root>
    </mxGraphModel>
  </diagram>
</mxfile>
